# xmcd
#
# Track frame offsets:
#	150
#	12124
#	25108
#	38863
#	51814
#	66242
#
# Disc length: 1028 seconds
# Revision: 0
# Processed by: cddbd v1.5.2PL0 Copyright (c) Steve Scherf et al.
# Submitted via: dBpowerAMP V12.0
#
DISCID=44040206
DTITLE=Eli Fox - Nothing To Say
DYEAR=2016
DGENRE=Coiuntry
TTITLE0=Nothing to Say
TTITLE1=Grenade Tossing Monkey
TTITLE2=Where Do You Go?
TTITLE3=Mountain Dew
TTITLE4=Nowhere Near
TTITLE5=Tennessee
EXTD=
EXTT0=
EXTT1=
EXTT2=
EXTT3=
EXTT4=
EXTT5=
PLAYORDER=
